<?xml version="1.0" standalone="no"?>
<!DOCTYPE svg PUBLIC "-//W3C//DTD SVG 20010904//EN"
 "http://www.w3.org/TR/2001/REC-SVG-20010904/DTD/svg10.dtd">
<svg version="1.0" xmlns="http://www.w3.org/2000/svg"
 width="224.000000pt" height="225.000000pt" viewBox="0 0 224.000000 225.000000"
 preserveAspectRatio="xMidYMid meet">

<g transform="translate(0.000000,225.000000) scale(0.100000,-0.100000)" stroke="none">
<path d="M997 2240 c-365 -41 -694 -268 -863 -593 -90 -174 -127 -325 -127
-522 0 -805 811 -1343 1554 -1030 447 188 726 669 670 1154 -45 384 -276 713
-616 880 -194 95 -411 134 -618 111z m333 -299 c102 -27 160 -54 256 -117 329
-217 460 -637 315 -1010 -17 -43 -45 -101 -62 -128 l-31 -49 -584 584 c-321
321 -583 588 -581 594 11 33 240 126 357 145 81 13 245 4 330 -19z m-304 -920
l578 -583 -25 -19 c-13 -10 -56 -34 -95 -53 -343 -168 -769 -73 -1014 226 -61
75 -141 235 -166 333 -25 98 -25 304 0 400 29 108 116 290 136 283 5 -2 269
-266 586 -587z"/>
</g>
</svg>
