<?xml version="1.0" standalone="no"?>
<!DOCTYPE svg PUBLIC "-//W3C//DTD SVG 20010904//EN"
 "http://www.w3.org/TR/2001/REC-SVG-20010904/DTD/svg10.dtd">
<svg version="1.0" xmlns="http://www.w3.org/2000/svg"
 width="150.000000pt" height="150.000000pt" viewBox="0 0 150.000000 150.000000"
 preserveAspectRatio="xMidYMid meet">

<g transform="translate(0.000000,150.000000) scale(0.100000,-0.100000)"
stroke="none">
<path d="M943 1308 l-193 -192 -108 107 c-60 59 -114 107 -121 107 -7 0 -23
-11 -37 -25 -18 -19 -23 -31 -19 -48 4 -12 50 -66 103 -119 l97 -98 -255 0
c-316 -1 -347 -9 -391 -105 -17 -37 -19 -73 -19 -413 0 -313 2 -379 15 -409
21 -50 42 -72 90 -94 37 -17 79 -19 643 -19 520 0 608 2 639 15 50 21 72 42
94 90 17 37 19 72 19 415 0 343 -2 378 -19 415 -44 96 -75 104 -391 105 l-254
0 187 188 c148 149 187 194 187 215 0 27 -31 57 -59 57 -8 0 -102 -86 -208
-192z m25 -412 c101 -44 126 -118 126 -376 0 -215 -13 -281 -68 -336 -59 -59
-115 -68 -411 -68 -352 0 -413 15 -463 115 -51 103 -51 475 0 577 51 102 95
112 478 109 262 -2 300 -4 338 -21z m390 -166 c46 -43 36 -117 -20 -146 -87
-45 -173 72 -103 141 31 32 91 34 123 5z m6 -241 c49 -58 20 -134 -56 -146
-32 -5 -41 -1 -68 25 -61 61 -26 152 59 152 32 0 44 -6 65 -31z"/>
</g>
</svg>
